<?xml version="1.0" standalone="no"?>
<!DOCTYPE svg PUBLIC "-//W3C//DTD SVG 20010904//EN"
 "http://www.w3.org/TR/2001/REC-SVG-20010904/DTD/svg10.dtd">
<svg version="1.0" xmlns="http://www.w3.org/2000/svg"
 width="612.000000pt" height="408.000000pt" viewBox="0 0 612.000000 408.000000"
 preserveAspectRatio="xMidYMid meet">

<g transform="translate(0.000000,408.000000) scale(0.100000,-0.100000)"
fill="#000000" stroke="none">
<path d="M3014 2811 c-45 -27 -64 -59 -64 -107 0 -58 -19 -98 -68 -140 -43
-36 -52 -60 -30 -82 21 -21 43 -13 83 29 39 39 86 69 110 69 7 0 19 -10 27
-21 10 -16 27 -23 68 -27 30 -2 61 -9 67 -14 15 -12 99 -14 131 -4 18 6 22 15
22 46 0 45 -9 53 -70 60 -38 4 -46 9 -48 29 -2 13 -12 26 -23 28 -13 4 -19 14
-19 32 0 39 -36 90 -75 107 -46 19 -74 18 -111 -5z m110 -6 c35 -17 66 -61 66
-94 0 -16 -6 -21 -29 -21 -15 0 -42 -5 -60 -11 -28 -10 -31 -15 -31 -50 0 -33
-3 -39 -21 -39 -12 0 -36 15 -55 34 -26 26 -34 42 -34 70 0 51 25 95 63 111
42 18 62 18 101 0z m101 -146 c7 -7 5 -13 -5 -19 -24 -16 -40 -12 -33 8 4 12
1 11 -13 -6 -17 -20 -23 -21 -56 -12 -43 12 -48 26 -15 40 26 11 107 4 122
-11z m-237 -49 c15 -19 19 -31 11 -36 -14 -9 -64 40 -55 55 11 16 19 13 44
-19z m152 3 c8 -7 -24 -23 -40 -20 -8 1 -16 10 -18 20 -3 15 1 17 25 11 15 -4
30 -9 33 -11z m58 -13 c-8 -13 -23 -20 -43 -20 l-30 0 25 20 c14 11 33 20 43
20 15 0 15 -3 5 -20z m142 0 c24 -16 -15 -40 -65 -40 -50 0 -89 24 -65 40 8 5
38 10 65 10 28 0 57 -5 65 -10z m-380 -15 c10 -12 5 -23 -25 -60 -38 -46 -71
-58 -82 -29 -4 10 9 31 38 60 48 49 51 50 69 29z m198 -15 c22 0 32 -5 32 -15
0 -18 -60 -21 -91 -5 -27 15 -24 34 4 26 12 -3 37 -6 55 -6z m190 -30 c-7 -32
-139 -32 -146 0 -2 12 12 15 73 15 61 0 75 -3 73 -15z"/>
<path d="M2440 2093 c-18 -48 -41 -109 -51 -135 l-19 -48 39 0 c30 0 40 4 44
20 4 17 14 20 65 20 51 0 60 -3 65 -20 4 -15 14 -20 42 -20 43 0 44 -12 -20
155 l-43 110 -44 3 -45 3 -33 -88z m90 -8 c5 -14 13 -37 16 -50 6 -23 3 -25
-30 -25 -20 0 -36 1 -36 3 0 10 33 97 36 97 3 0 9 -11 14 -25z"/>
<path d="M2930 2045 l0 -135 35 0 35 0 1 88 0 87 32 -85 c20 -51 39 -86 48
-88 12 -2 25 21 50 85 l34 88 3 -87 3 -88 34 0 35 0 0 136 0 135 -51 -3 -51
-3 -25 -67 c-14 -37 -29 -66 -33 -63 -5 3 -18 34 -30 70 l-22 65 -49 0 -49 0
0 -135z"/>
<path d="M3560 2045 l0 -135 85 0 85 0 0 29 c0 29 -2 30 -52 33 l-53 3 -3 103
-3 102 -29 0 -30 0 0 -135z"/>
<path d="M2135 1599 c-4 -6 -4 -13 -1 -16 3 -4 6 -1 6 6 0 7 5 9 10 6 6 -3 10
-1 10 4 0 14 -17 14 -25 0z"/>
<path d="M2221 1575 c1 -37 2 -38 8 -10 l6 29 18 -28 c10 -15 21 -25 24 -22 3
2 -9 20 -26 38 l-31 33 1 -40z"/>
<path d="M2271 1594 c0 -11 3 -14 6 -6 3 7 2 16 -1 19 -3 4 -6 -2 -5 -13z"/>
<path d="M2530 1601 c0 -5 5 -13 10 -16 6 -3 10 -2 10 4 0 5 -4 13 -10 16 -5
3 -10 2 -10 -4z"/>
<path d="M2587 1578 c8 -46 13 -48 13 -5 0 21 -4 37 -10 37 -5 0 -7 -14 -3
-32z"/>
<path d="M2652 1598 c-17 -17 -15 -33 5 -49 15 -13 15 -12 3 8 -11 18 -12 24
-1 37 16 19 10 21 -7 4z"/>
<path d="M2700 1593 c12 -18 12 -24 -1 -40 -13 -16 -13 -17 4 -4 21 17 22 35
0 52 -15 13 -15 12 -3 -8z"/>
<path d="M2761 1575 c1 -37 2 -38 8 -10 l6 29 18 -28 c10 -15 21 -25 24 -22 3
2 -9 20 -26 38 l-31 33 1 -40z"/>
<path d="M2811 1594 c0 -11 3 -14 6 -6 3 7 2 16 -1 19 -3 4 -6 -2 -5 -13z"/>
<path d="M2872 1575 c0 -22 2 -32 5 -23 2 9 12 19 21 21 16 4 16 5 0 6 -9 0
-19 9 -21 19 -3 9 -5 -1 -5 -23z"/>
<path d="M2973 1577 c8 -25 13 -32 16 -20 1 10 10 27 19 38 16 19 16 19 -3 3
-17 -16 -19 -16 -31 0 -10 14 -10 10 -1 -21z"/>
<path d="M3300 1581 c0 -17 4 -32 8 -35 4 -2 6 11 4 30 -5 42 -12 45 -12 5z"/>
<path d="M3351 1594 c0 -11 3 -14 6 -6 3 7 2 16 -1 19 -3 4 -6 -2 -5 -13z"/>
<path d="M3411 1573 c2 -31 3 -33 6 -10 3 18 9 25 16 20 7 -4 6 0 -2 10 -19
24 -21 22 -20 -20z"/>
<path d="M3461 1587 c-1 -20 -5 -26 -13 -21 -8 5 -7 0 2 -11 14 -18 15 -18 18
3 2 12 1 30 -1 40 -3 10 -5 6 -6 -11z"/>
<path d="M3521 1594 c0 -11 3 -14 6 -6 3 7 2 16 -1 19 -3 4 -6 -2 -5 -13z"/>
<path d="M3553 1604 c18 -6 24 -49 7 -57 -6 -3 -5 -4 2 -3 7 2 13 16 13 32 0
21 -5 29 -20 31 -16 1 -16 1 -2 -3z"/>
<path d="M3620 1575 c0 -19 4 -35 10 -35 5 0 7 6 4 14 -4 9 3 16 18 19 l23 4
-22 2 c-25 1 -31 16 -10 24 7 3 5 6 -5 6 -14 1 -18 -7 -18 -34z"/>
<path d="M3749 1601 c12 -8 12 -13 3 -24 -10 -11 -9 -17 5 -28 15 -11 16 -11
6 1 -9 10 -9 17 -2 26 12 15 4 34 -14 34 -8 0 -7 -4 2 -9z"/>
<path d="M3813 1575 c0 -22 2 -30 4 -17 2 12 2 30 0 40 -3 9 -5 -1 -4 -23z"/>
<path d="M3870 1607 c0 -4 13 -22 30 -40 l30 -32 -2 40 c-1 33 -2 35 -5 11
l-5 -29 -23 29 c-14 16 -24 25 -25 21z"/>
<path d="M3975 1591 c-7 -22 3 -51 17 -51 6 0 5 7 -3 16 -10 12 -10 20 -1 35
7 10 8 19 3 19 -5 0 -12 -8 -16 -19z"/>
<path d="M2160 1569 c0 -6 -9 -9 -19 -6 -11 3 -22 0 -24 -7 -3 -7 8 -11 28
-11 25 0 31 4 27 18 -5 19 -12 23 -12 6z"/>
<path d="M2522 1560 c0 -14 2 -19 5 -12 2 6 2 18 0 25 -3 6 -5 1 -5 -13z"/>
<path d="M2570 1571 c0 -7 -4 -9 -10 -6 -6 4 -7 -1 -3 -11 6 -15 7 -15 15 1 6
9 7 19 4 22 -3 4 -6 1 -6 -6z"/>
<path d="M3346 1553 c-6 -14 -5 -15 5 -6 7 7 10 15 7 18 -3 3 -9 -2 -12 -12z"/>
<path d="M4026 1553 c-6 -14 -5 -15 5 -6 7 7 10 15 7 18 -3 3 -9 -2 -12 -12z"/>
<path d="M3200 1553 c0 -5 14 -8 30 -8 17 0 30 3 30 8 0 4 -13 7 -30 7 -16 0
-30 -3 -30 -7z"/>
</g>
</svg>
