<?xml version="1.0" standalone="no"?>
<!DOCTYPE svg PUBLIC "-//W3C//DTD SVG 20010904//EN"
 "http://www.w3.org/TR/2001/REC-SVG-20010904/DTD/svg10.dtd">
<svg version="1.0" xmlns="http://www.w3.org/2000/svg"
 width="1015.000000pt" height="1012.000000pt" viewBox="0 0 1015.000000 1012.000000"
 preserveAspectRatio="xMidYMid meet">

<g transform="translate(0.000000,1012.000000) scale(0.100000,-0.100000)"
fill="#000000" stroke="none">
<path d="M4760 9183 c-214 -36 -397 -212 -454 -438 -14 -52 -16 -232 -18
-1357 l-3 -1298 -441 0 c-409 0 -446 -1 -520 -20 -242 -62 -399 -287 -393
-566 l2 -94 -59 -39 c-72 -46 -175 -146 -234 -226 -41 -55 -125 -205 -115
-205 2 0 -2 -15 -10 -33 -13 -31 -43 -174 -50 -242 -4 -32 -15 -123 -20 -165
-11 -93 -39 -300 -60 -440 -14 -91 -28 -190 -31 -220 -3 -30 -7 -66 -9 -80 -3
-14 -8 -52 -11 -85 -4 -33 -8 -63 -10 -66 -2 -4 -6 -28 -9 -55 -4 -27 -15
-112 -26 -189 -53 -365 -63 -476 -49 -552 23 -134 94 -260 197 -352 117 -105
226 -143 398 -140 115 1 161 12 260 60 155 75 266 214 356 445 27 71 61 154
74 185 14 31 25 61 25 67 0 6 11 35 24 64 13 29 35 87 50 128 44 122 8 111
357 108 l304 -3 3 -104 c2 -81 7 -110 21 -130 10 -14 64 -107 120 -206 56 -99
128 -223 160 -275 32 -52 104 -174 161 -270 310 -528 313 -533 332 -510 9 11
75 118 146 238 251 422 420 708 477 807 32 55 78 134 101 175 l44 75 0 103 0
102 309 0 309 0 15 -32 c29 -64 66 -154 102 -248 20 -52 43 -108 50 -125 7
-16 29 -71 48 -122 71 -185 116 -261 202 -349 106 -107 210 -165 322 -178 153
-18 177 -18 277 9 302 79 471 364 416 702 -6 34 -12 75 -14 90 -2 15 -14 93
-26 173 -27 182 -28 184 -35 250 -3 30 -8 62 -10 70 -3 8 -7 38 -10 65 -3 28
-12 86 -20 130 -8 44 -23 150 -34 235 -11 85 -25 189 -31 230 -6 41 -13 93
-16 115 -3 22 -9 72 -15 110 -5 39 -12 95 -14 125 -12 119 -33 223 -64 310
-57 161 -193 331 -343 429 l-68 43 0 107 c0 182 -46 305 -155 417 -73 74 -180
131 -275 144 -36 5 -257 10 -492 10 l-428 0 -1 1300 c-1 715 -2 1303 -3 1308
-1 4 -6 23 -10 42 -26 119 -96 235 -188 313 -70 59 -129 91 -212 116 -63 19
-90 21 -360 20 -160 -1 -302 -4 -316 -6z m858 -682 c94 -13 146 -75 137 -165
-2 -27 -12 -60 -20 -73 -35 -53 -35 -53 -687 -51 l-602 3 -33 43 c-40 53 -43
98 -10 162 16 33 34 51 67 68 l44 22 526 -1 c289 0 549 -4 578 -8z m72 -540
c73 -53 88 -168 30 -226 l-30 -30 -258 -6 c-497 -13 -929 -10 -966 5 -68 29
-101 114 -72 190 19 50 41 73 82 87 18 5 260 7 609 4 539 -5 582 -7 605 -24z
m-1010 -2481 c0 -1105 -4 -2010 -8 -2010 -4 0 -13 5 -18 10 -8 8 -26 -2 -60
-32 -27 -24 -57 -49 -66 -57 -17 -13 -18 86 -18 2043 l0 2056 85 0 85 0 0
-2010z m540 -21 l0 -2031 -60 52 c-33 29 -63 56 -66 61 -10 17 -29 9 -69 -28
-22 -20 -52 -48 -67 -62 l-28 -25 0 2032 0 2032 145 0 145 0 0 -2031z m400
-20 l0 -2051 -65 57 c-54 48 -67 55 -80 45 -13 -11 -15 212 -15 1994 l0 2006
80 0 80 0 0 -2051z m-1340 417 l0 -55 -467 -3 c-463 -3 -469 -3 -517 -26 -28
-12 -65 -34 -84 -48 -18 -14 -35 -24 -37 -22 -9 8 65 104 101 132 21 16 63 40
93 53 55 22 61 23 484 23 l427 0 0 -54z m2455 40 c85 -22 166 -84 218 -167 24
-36 17 -36 -36 0 -23 15 -69 37 -102 49 -57 20 -81 21 -504 22 -244 0 -447 3
-452 6 -5 3 -9 27 -9 55 l0 49 418 0 c317 0 429 -3 467 -14z m-2455 -316 l0
-80 -555 -2 c-511 -3 -555 -2 -555 14 0 23 78 100 125 123 53 25 180 31 633
27 l352 -2 0 -80z m2548 60 c51 -22 142 -108 142 -134 0 -8 -145 -10 -560 -8
l-560 2 0 78 c0 43 3 82 8 86 4 5 212 6 462 4 448 -5 456 -5 508 -28z m-58
-505 c84 -28 140 -109 140 -204 0 -62 -10 -89 -51 -135 -43 -50 -101 -76 -166
-76 -62 0 -104 15 -151 55 -47 39 -64 78 -63 146 0 158 144 263 291 214z
m-3120 -315 l0 -180 188 -2 187 -3 3 -177 2 -178 -190 0 -190 0 0 -180 0 -180
-180 0 -180 0 0 180 0 180 -180 0 -180 0 2 178 3 177 178 3 177 2 0 180 0 180
173 2 c94 2 175 2 180 0 4 -2 7 -84 7 -182z m2688 -146 c62 -36 93 -89 99
-168 5 -53 2 -71 -18 -110 -52 -106 -183 -154 -282 -105 -87 44 -127 104 -127
194 0 92 48 162 140 205 56 26 126 20 188 -16z m866 25 c92 -23 155 -107 156
-207 0 -97 -40 -159 -128 -198 -85 -38 -156 -27 -224 34 -128 115 -91 308 70
367 46 17 72 18 126 4z m-441 -444 c157 -65 195 -255 74 -362 -137 -121 -363
-21 -359 158 3 151 154 259 285 204z m-1554 -1064 l75 -70 52 45 c29 24 65 58
81 75 54 59 58 58 134 -22 l70 -72 -54 -96 c-48 -86 -80 -146 -233 -436 l-42
-80 -222 0 -221 0 -88 160 c-48 88 -122 223 -165 299 -42 76 -76 144 -76 151
0 10 132 136 150 143 5 2 47 -36 94 -83 l86 -87 107 100 107 101 35 -29 c20
-16 70 -60 110 -99z"/>
</g>
</svg>
